<svg width="512" height="512" viewBox="0 0 512 512" fill="none" xmlns="http://www.w3.org/2000/svg">
  <defs>
    <!-- Main gradient -->
    <linearGradient id="mainGradient" x1="0%" y1="0%" x2="100%" y2="100%">
      <stop offset="0%" style="stop-color:#667eea;stop-opacity:1" />
      <stop offset="50%" style="stop-color:#764ba2;stop-opacity:1" />
      <stop offset="100%" style="stop-color:#f093fb;stop-opacity:1" />
    </linearGradient>
    
    <!-- Glow effect -->
    <filter id="glow">
      <feGaussianBlur stdDeviation="8" result="coloredBlur"/>
      <feMerge> 
        <feMergeNode in="coloredBlur"/>
        <feMergeNode in="SourceGraphic"/> 
      </feMerge>
    </filter>
    
    <!-- Inner shadow -->
    <filter id="innerShadow">
      <feOffset dx="0" dy="4"/>
      <feGaussianBlur stdDeviation="4" result="offset-blur"/>
      <feFlood flood-color="#000000" flood-opacity="0.3"/>
      <feComposite in2="offset-blur" operator="in"/>
      <feMerge> 
        <feMergeNode/>
        <feMergeNode in="SourceGraphic"/> 
      </feMerge>
    </filter>
  </defs>
  
  <!-- Background circle with gradient -->
  <circle cx="256" cy="256" r="240" fill="url(#mainGradient)" filter="url(#glow)"/>
  
  <!-- Inner circle for depth -->
  <circle cx="256" cy="256" r="200" fill="none" stroke="rgba(255,255,255,0.2)" stroke-width="2"/>
  
  <!-- M letter -->
  <path d="M 160 180 L 160 340 L 190 340 L 190 230 L 230 290 L 250 290 L 290 230 L 290 340 L 320 340 L 320 180 L 280 180 L 240 260 L 200 180 Z" 
        fill="white" 
        filter="url(#innerShadow)"
        opacity="0.95"/>
  
  <!-- X letter -->
  <path d="M 340 180 L 310 180 L 280 220 L 250 180 L 220 180 L 265 260 L 220 340 L 250 340 L 280 300 L 310 340 L 340 340 L 295 260 Z" 
        fill="white" 
        filter="url(#innerShadow)"
        opacity="0.95"/>
  
  <!-- Highlight effect -->
  <ellipse cx="256" cy="200" rx="120" ry="60" fill="rgba(255,255,255,0.3)" opacity="0.6"/>
  
  <!-- Border -->
  <circle cx="256" cy="256" r="240" fill="none" stroke="rgba(255,255,255,0.4)" stroke-width="4"/>
</svg>