<svg width="64" height="64" viewBox="0 0 64 64" fill="none" xmlns="http://www.w3.org/2000/svg">
  <defs>
    <!-- Main gradient -->
    <linearGradient id="mainGradient" x1="0%" y1="0%" x2="100%" y2="100%">
      <stop offset="0%" style="stop-color:#3b82f6;stop-opacity:1" />
      <stop offset="50%" style="stop-color:#8b5cf6;stop-opacity:1" />
      <stop offset="100%" style="stop-color:#06b6d4;stop-opacity:1" />
    </linearGradient>
    <!-- Inner gradient -->
    <linearGradient id="innerGradient" x1="0%" y1="0%" x2="100%" y2="100%">
      <stop offset="0%" style="stop-color:#1e40af;stop-opacity:0.8" />
      <stop offset="100%" style="stop-color:#7c3aed;stop-opacity:0.8" />
    </linearGradient>
    <!-- Text gradient -->
    <linearGradient id="textGradient" x1="0%" y1="0%" x2="100%" y2="100%">
      <stop offset="0%" style="stop-color:#ffffff;stop-opacity:1" />
      <stop offset="100%" style="stop-color:#e2e8f0;stop-opacity:1" />
    </linearGradient>
    <!-- Glow filter -->
    <filter id="glow">
      <feGaussianBlur stdDeviation="3" result="coloredBlur"/>
      <feMerge> 
        <feMergeNode in="coloredBlur"/>
        <feMergeNode in="SourceGraphic"/> 
      </feMerge>
    </filter>
  </defs>
  
  <!-- Outer glow circle -->
  <circle cx="32" cy="32" r="31" fill="url(#mainGradient)" opacity="0.2" filter="url(#glow)"/>
  
  <!-- Main background -->
  <circle cx="32" cy="32" r="28" fill="url(#mainGradient)" stroke="rgba(255,255,255,0.2)" stroke-width="1"/>
  
  <!-- Inner design element -->
  <circle cx="32" cy="32" r="22" fill="url(#innerGradient)" opacity="0.3"/>
  
  <!-- M letter -->
  <path d="M18 24 L18 40 L21 40 L21 30 L26 38 L28 38 L33 30 L33 40 L36 40 L36 24 L32 24 L27 34 L22 24 Z" fill="url(#textGradient)" font-weight="bold"/>
  
  <!-- X letter -->
  <path d="M40 24 L44 30 L48 24 L51 24 L46 32 L51 40 L48 40 L44 34 L40 40 L37 40 L42 32 L37 24 Z" fill="url(#textGradient)" font-weight="bold"/>
  
  <!-- Decorative dots -->
  <circle cx="16" cy="16" r="1.5" fill="rgba(255,255,255,0.6)"/>
  <circle cx="48" cy="16" r="1" fill="rgba(255,255,255,0.4)"/>
  <circle cx="16" cy="48" r="1" fill="rgba(255,255,255,0.5)"/>
  <circle cx="48" cy="48" r="1.5" fill="rgba(255,255,255,0.3)"/>
</svg>